<?xml version="1.0" encoding="UTF-8" standalone="no"?>
<!DOCTYPE svg PUBLIC "-//W3C//DTD SVG 1.1//EN" "http://www.w3.org/Graphics/SVG/1.1/DTD/svg11.dtd">
<svg width="100%" height="100%" viewBox="0 0 1001 341" version="1.1" xmlns="http://www.w3.org/2000/svg" xmlns:xlink="http://www.w3.org/1999/xlink" xml:space="preserve" style="fill-rule:evenodd;clip-rule:evenodd;stroke-linejoin:round;stroke-miterlimit:2;">
    <g transform="matrix(1,0,0,1,-373.633,-8368.91)">
        <g transform="matrix(1,0,0,1,-2875.33,8043.1)">
            <g transform="matrix(2.47887,0,0,2.47887,2578.17,-17972.3)">
                <path d="M471.966,7517.94C468.288,7518.58 464.366,7518.9 460.198,7518.9C457.066,7518.9 453.772,7518.59 450.317,7517.95C446.305,7517.2 442.649,7515.89 439.332,7514.07C435.501,7511.97 432.326,7509.19 429.792,7505.72C426.887,7501.76 425.203,7496.86 425.203,7490.91C425.203,7489.07 425.391,7487.31 425.756,7485.65C424.819,7485.75 423.885,7485.8 422.954,7485.8C419.455,7485.8 416.456,7485.12 413.912,7484.01C412.142,7483.23 410.58,7482.28 409.214,7481.16C407.62,7482.13 406.005,7482.95 404.375,7483.64C400.944,7485.1 397.443,7485.8 393.881,7485.8C388.331,7485.8 384.014,7484.23 380.703,7481.64C375.866,7484.07 370.335,7485.37 364.065,7485.37C357.206,7485.37 351.946,7483.24 348.006,7479.81C344.986,7477.18 342.726,7473.76 341.616,7469.39C340.387,7470.53 339.11,7471.63 337.791,7472.68C332.962,7476.52 327.493,7479.6 321.367,7481.88C315.261,7484.16 308.21,7485.37 300.188,7485.37C296.459,7485.37 293.027,7484.89 289.883,7483.98C286.364,7482.97 283.345,7481.52 280.78,7479.73C277.637,7477.54 275.218,7474.84 273.463,7471.7C271.586,7468.34 270.605,7464.63 270.605,7460.57C270.605,7455.23 272.251,7450.73 275.254,7446.97C278.724,7442.64 283.608,7439.99 290.293,7439.9C287.983,7436.07 286.733,7431.48 286.733,7426.08C286.733,7419.91 288.433,7414.43 291.706,7409.61C294.461,7405.56 298.155,7401.95 302.884,7398.88C306.889,7396.28 311.477,7394.06 316.67,7392.26C321.339,7390.63 326.245,7389.29 331.388,7388.22C336.334,7387.19 341.356,7386.37 346.454,7385.76C351.422,7385.17 356.131,7384.73 360.58,7384.43C365.036,7384.13 369.102,7383.95 372.778,7383.87C376.384,7383.8 379.28,7383.77 381.466,7383.77C381.73,7383.77 382.026,7383.71 382.36,7383.65C383.291,7383.48 384.222,7383.28 385.153,7383.06C386.492,7382.73 387.771,7382.45 388.989,7382.2C391.028,7381.8 392.733,7381.64 394.093,7381.64C398.536,7381.64 401.679,7382.97 403.854,7384.52C404.395,7384.37 404.936,7384.24 405.477,7384.12C409.124,7383.3 412.582,7382.92 415.845,7382.92C421.723,7382.92 426.622,7384.36 430.648,7386.86C436.721,7390.62 439.911,7396.17 439.911,7403.69C439.911,7407.81 438.797,7411.44 436.738,7414.62C434.933,7417.41 432.63,7419.66 429.841,7421.38C429.636,7421.51 429.429,7421.63 429.221,7421.76L444.574,7421.33C446.685,7421.29 448.738,7421.76 450.625,7422.7L450.678,7422.73C452.558,7419.59 454.618,7416.15 456.859,7412.43C460.41,7406.52 464.47,7399.66 469.041,7391.86C471.131,7388.29 474.852,7385.98 478.979,7385.7L494.577,7384.64C499.226,7384.33 503.665,7386.62 506.093,7390.6C507.378,7392.7 507.987,7395.09 507.92,7397.47C512.44,7397.94 516.368,7399.85 519.703,7403.18L520.36,7403.87L521.018,7403.18C524.909,7399.29 529.606,7397.35 535.109,7397.35C540.613,7397.35 545.31,7399.29 549.2,7403.18C553.091,7407.07 555.037,7411.77 555.037,7417.27C555.037,7418.44 554.95,7419.57 554.775,7420.66L561.183,7420.48C564.155,7420.4 567,7421.38 569.256,7423.16C570.899,7422.3 572.742,7421.81 574.661,7421.76L590.046,7421.33C592.206,7421.27 594.3,7421.77 596.151,7422.73C598.031,7419.59 600.091,7416.15 602.332,7412.43C605.883,7406.52 609.943,7399.66 614.514,7391.86C616.604,7388.29 620.325,7385.98 624.452,7385.7L640.05,7384.64C644.699,7384.33 649.137,7386.62 651.566,7390.6C652.851,7392.7 653.46,7395.09 653.393,7397.47C657.913,7397.94 661.841,7399.85 665.176,7403.18C669.066,7407.07 671.012,7411.77 671.012,7417.27C671.012,7422.78 669.066,7427.48 665.176,7431.36C664.923,7431.62 664.667,7431.86 664.407,7432.1C664.613,7432.16 664.819,7432.23 665.023,7432.31L665.872,7432.63C669.393,7433.95 672.06,7436.02 673.325,7440.33C674.014,7442.68 674.28,7444.11 673.983,7450.27C673.458,7461.17 663.875,7465.77 663.585,7483.71C663.206,7507.08 653.363,7508.11 638.47,7508.35C624.582,7508.58 565.639,7507.29 532.979,7507.29C507.338,7507.29 492.207,7511.89 480.879,7515.64C479.622,7516.08 478.33,7516.48 477.002,7516.84C475.369,7517.29 473.808,7517.66 472.294,7517.89C472.18,7517.91 472.07,7517.93 471.966,7517.94ZM385.243,7462.94C381.968,7466.12 378.711,7468.57 375.471,7470.28C372.182,7472.01 368.38,7472.87 364.065,7472.87C360.74,7472.87 358.123,7472.04 356.213,7470.38C354.303,7468.72 353.348,7466.23 353.348,7462.9C353.348,7460.85 353.843,7458.71 354.833,7456.48C355.824,7454.25 356.902,7452.04 358.07,7449.85C359.237,7447.66 360.298,7445.55 361.253,7443.54C362.208,7441.52 362.685,7439.73 362.685,7438.18C362.685,7436.2 362.084,7434.76 360.881,7433.88C359.679,7433 358.052,7432.55 356,7432.55C355.576,7432.55 355.205,7432.52 354.886,7432.45C354.568,7432.38 354.409,7432.2 354.409,7431.92C354.409,7431.49 354.798,7431.28 355.576,7431.28C358.476,7431.28 361.076,7431.05 363.375,7430.59C365.674,7430.13 367.902,7429.25 370.06,7427.94C372.217,7426.63 374.428,7424.81 376.691,7422.47C378.955,7420.14 381.466,7417.1 384.225,7413.35C386.771,7409.95 389.389,7407.11 392.077,7404.81C394.765,7402.51 397.453,7400.67 400.141,7399.29C402.829,7397.91 405.517,7396.92 408.205,7396.32C410.893,7395.72 413.44,7395.42 415.845,7395.42C419.099,7395.42 421.84,7396.11 424.068,7397.49C426.296,7398.86 427.411,7400.93 427.411,7403.69C427.411,7405.25 427.021,7406.63 426.243,7407.83C425.465,7409.03 424.475,7410.01 423.272,7410.75C422.07,7411.49 420.743,7412.06 419.293,7412.45C417.843,7412.84 416.446,7413.03 415.102,7413.03C415.88,7411.4 416.57,7409.67 417.171,7407.83C417.772,7405.99 418.073,7404.22 418.073,7402.53C418.073,7398.64 416.871,7396.69 414.465,7396.69C412.98,7396.69 411.601,7397.33 410.327,7398.6C409.054,7399.87 407.745,7401.52 406.401,7403.53C405.057,7405.55 403.607,7407.78 402.051,7410.22C400.495,7412.66 398.726,7415.05 396.746,7417.38C394.411,7420.07 392.077,7422.28 389.742,7424.01C387.408,7425.74 384.826,7427.16 381.997,7428.26C379.167,7429.35 376.002,7430.2 372.5,7430.8C368.999,7431.4 364.949,7431.92 360.351,7432.34L360.351,7432.55C361.978,7433.4 363.534,7434.29 365.02,7435.21C366.505,7436.13 367.831,7437.2 368.999,7438.44C370.166,7439.68 371.103,7441.08 371.81,7442.63C372.518,7444.19 372.871,7445.99 372.871,7448.05C372.871,7449.53 372.606,7451.09 372.076,7452.71C371.545,7454.34 370.962,7455.95 370.325,7457.54C369.688,7459.13 369.105,7460.65 368.574,7462.1C368.044,7463.56 367.778,7464.81 367.778,7465.87C367.778,7467.07 368.061,7468.01 368.627,7468.68C369.193,7469.36 370.077,7469.69 371.28,7469.69C373.261,7469.69 375.524,7468.86 378.071,7467.2C380.449,7465.65 382.981,7463.49 385.668,7460.74C385.797,7460.25 385.953,7459.75 386.135,7459.24C386.771,7457.44 387.585,7455.54 388.575,7453.56C389.566,7451.58 390.68,7449.57 391.918,7447.52C393.156,7445.46 394.34,7443.54 395.472,7441.73C396.604,7439.93 397.647,7438.3 398.602,7436.85C399.557,7435.4 400.282,7434.25 400.778,7433.4L416.057,7432.98L412.343,7438.71C408.948,7443.8 406.224,7447.96 404.173,7451.18C402.122,7454.39 400.53,7457.01 399.398,7459.03C398.266,7461.04 397.524,7462.6 397.17,7463.7C396.816,7464.79 396.639,7465.77 396.639,7466.61C396.639,7467.53 396.905,7468.28 397.435,7468.84C397.966,7469.41 398.655,7469.69 399.504,7469.69C400.919,7469.69 402.741,7468.9 404.969,7467.3C407.197,7465.71 409.638,7463.4 412.29,7460.35C414.943,7457.31 417.755,7453.6 420.726,7449.21C423.697,7444.83 426.632,7439.84 429.533,7434.25L444.918,7433.83C444.282,7434.89 443.38,7436.3 442.212,7438.07C441.045,7439.84 439.737,7441.77 438.287,7443.85C436.836,7445.94 435.351,7448.15 433.83,7450.49C432.309,7452.82 430.93,7455.07 429.692,7457.22C428.454,7459.38 427.446,7461.4 426.668,7463.27C425.89,7465.15 425.501,7466.69 425.501,7467.89C425.501,7468.88 425.713,7469.57 426.137,7469.96C426.562,7470.35 427.128,7470.54 427.835,7470.54C429.038,7470.54 430.435,7470.05 432.026,7469.05C433.618,7468.06 435.316,7466.77 437.119,7465.18C438.923,7463.59 440.762,7461.8 442.637,7459.82C444.093,7458.28 445.486,7456.74 446.814,7455.21C446.938,7454.93 447.067,7454.65 447.2,7454.36C448.296,7451.99 449.746,7449.19 451.55,7445.98C453.354,7442.76 455.582,7438.92 458.235,7434.46C460.887,7430.01 464,7424.81 467.572,7418.87C471.144,7412.92 475.229,7406.03 479.827,7398.18L495.425,7397.11C488.351,7408.86 482.303,7418.8 477.281,7426.93C472.258,7435.07 468.138,7441.87 464.919,7447.36C461.701,7452.84 459.331,7457.19 457.81,7460.41C456.289,7463.62 455.529,7466.19 455.529,7468.1C455.529,7468.88 455.759,7469.48 456.219,7469.9C456.678,7470.33 457.191,7470.54 457.757,7470.54C459.384,7470.54 461.436,7469.64 463.911,7467.83C466.387,7466.03 468.951,7463.78 471.604,7461.1C472.985,7459.7 474.343,7458.24 475.676,7456.74C476.302,7455.23 477.102,7453.63 478.077,7451.92C480.8,7447.14 484.249,7441.25 488.422,7434.25L503.595,7433.83C501.332,7437.44 499.104,7440.94 496.911,7444.33C494.718,7447.73 492.773,7450.89 491.075,7453.83C489.377,7456.76 488.015,7459.36 486.99,7461.63C485.964,7463.89 485.451,7465.69 485.451,7467.04C485.451,7468.03 485.628,7468.86 485.982,7469.53C486.335,7470.2 486.972,7470.54 487.892,7470.54C489.306,7470.54 490.845,7470.03 492.507,7469C494.17,7467.98 495.885,7466.67 497.653,7465.07C499.422,7463.48 501.19,7461.68 502.959,7459.66C503.611,7458.92 504.25,7458.18 504.873,7457.45C506.958,7453.68 508.954,7450.01 510.864,7446.45C513.446,7441.64 515.833,7437.58 518.026,7434.25L532.775,7433.83C529.097,7439.98 525.489,7446.1 521.952,7452.18C518.415,7458.27 514.807,7464.21 511.129,7470.01L511.341,7470.22C514.807,7469.09 518.061,7467.6 521.103,7465.77C524.145,7463.93 527.027,7461.86 529.751,7459.56C530.632,7458.81 531.501,7458.05 532.357,7457.28C532.847,7456.07 533.411,7454.84 534.048,7453.56C535.039,7451.58 536.153,7449.57 537.391,7447.52C538.629,7445.46 539.813,7443.54 540.945,7441.73C542.077,7439.93 543.12,7438.3 544.075,7436.85C545.03,7435.4 545.755,7434.25 546.251,7433.4L561.53,7432.98L557.816,7438.71C554.421,7443.8 551.697,7447.96 549.646,7451.18C547.595,7454.39 546.003,7457.01 544.871,7459.03C543.739,7461.04 542.997,7462.6 542.643,7463.7C542.289,7464.79 542.112,7465.77 542.112,7466.61C542.112,7467.53 542.378,7468.28 542.908,7468.84C543.439,7469.41 544.128,7469.69 544.977,7469.69C546.392,7469.69 548.214,7468.9 550.442,7467.3C552.67,7465.71 555.11,7463.4 557.763,7460.35C560.416,7457.31 563.228,7453.6 566.199,7449.21C569.17,7444.83 572.105,7439.84 575.006,7434.25L590.391,7433.83C589.754,7434.89 588.853,7436.3 587.685,7438.07C586.518,7439.84 585.21,7441.77 583.759,7443.85C582.309,7445.94 580.824,7448.15 579.303,7450.49C577.782,7452.82 576.403,7455.07 575.165,7457.22C573.927,7459.38 572.919,7461.4 572.141,7463.27C571.363,7465.15 570.974,7466.69 570.974,7467.89C570.974,7468.88 571.186,7469.57 571.61,7469.96C572.035,7470.35 572.6,7470.54 573.308,7470.54C574.51,7470.54 575.908,7470.05 577.499,7469.05C579.091,7468.06 580.788,7466.77 582.592,7465.18C584.396,7463.59 586.235,7461.8 588.11,7459.82C589.566,7458.28 590.959,7456.74 592.287,7455.21C592.411,7454.93 592.54,7454.65 592.672,7454.36C593.769,7451.99 595.219,7449.19 597.023,7445.98C598.827,7442.76 601.055,7438.92 603.708,7434.46C606.36,7430.01 609.473,7424.81 613.045,7418.87C616.617,7412.92 620.702,7406.03 625.3,7398.18L640.898,7397.11C633.824,7408.86 627.776,7418.8 622.754,7426.93C617.731,7435.07 613.611,7441.87 610.392,7447.36C607.174,7452.84 604.804,7457.19 603.283,7460.41C601.762,7463.62 601.002,7466.19 601.002,7468.1C601.002,7468.88 601.232,7469.48 601.692,7469.9C602.151,7470.33 602.664,7470.54 603.23,7470.54C604.857,7470.54 606.908,7469.64 609.384,7467.83C611.86,7466.03 614.424,7463.78 617.077,7461.1C618.458,7459.7 619.816,7458.24 621.149,7456.74C621.775,7455.23 622.575,7453.63 623.55,7451.92C626.273,7447.14 629.722,7441.25 633.895,7434.25L649.068,7433.83C646.805,7437.44 644.577,7440.94 642.384,7444.33C640.191,7447.73 638.245,7450.89 636.548,7453.83C634.85,7456.76 633.488,7459.36 632.463,7461.63C631.437,7463.89 630.924,7465.69 630.924,7467.04C630.924,7468.03 631.101,7468.86 631.455,7469.53C631.808,7470.2 632.445,7470.54 633.365,7470.54C634.779,7470.54 636.318,7470.03 637.98,7469C639.643,7467.98 641.358,7466.67 643.126,7465.07C644.895,7463.48 646.663,7461.68 648.432,7459.66C650.2,7457.65 651.863,7455.67 653.419,7453.72C654.975,7451.78 656.372,7449.94 657.61,7448.2C658.848,7446.47 659.856,7445.07 660.634,7444.01L661.483,7444.33C659.785,7446.74 657.663,7449.65 655.116,7453.09C652.57,7456.52 649.705,7459.86 646.522,7463.11C643.268,7466.44 640.261,7468.97 637.503,7470.7C634.744,7472.43 631.667,7473.3 628.271,7473.3C625.371,7473.3 623.178,7472.47 621.693,7470.81C620.207,7469.14 619.464,7466.83 619.464,7463.86C619.464,7462.6 619.678,7461.21 620.105,7459.7C619.876,7459.95 619.645,7460.21 619.411,7460.46C617.325,7462.72 615.132,7464.81 612.833,7466.72C610.534,7468.63 608.164,7470.2 605.724,7471.44C603.283,7472.68 600.86,7473.3 598.455,7473.3C595.484,7473.3 593.256,7472.56 591.771,7471.07C590.285,7469.59 589.542,7467.71 589.542,7465.45C589.542,7463.89 589.79,7462.25 590.285,7460.51C590.467,7459.88 590.689,7459.2 590.953,7458.47C589.83,7459.73 588.671,7460.97 587.473,7462.21C585.457,7464.3 583.388,7466.15 581.266,7467.78C579.144,7469.41 577.004,7470.73 574.846,7471.76C572.689,7472.79 570.549,7473.3 568.427,7473.3C566.871,7473.3 565.527,7473.05 564.395,7472.56C563.263,7472.06 562.343,7471.39 561.636,7470.54C560.929,7469.69 560.398,7468.72 560.044,7467.62C559.691,7466.53 559.514,7465.41 559.514,7464.28C559.514,7463.43 559.62,7462.58 559.832,7461.73C560.044,7460.88 560.257,7460.18 560.469,7459.61L560.257,7459.4C558.7,7461.17 557.109,7462.88 555.482,7464.55C553.855,7466.21 552.157,7467.69 550.389,7469C548.62,7470.31 546.816,7471.35 544.977,7472.13C543.138,7472.91 541.264,7473.3 539.354,7473.3C536.383,7473.3 534.19,7472.43 532.775,7470.7C531.36,7468.97 530.653,7466.76 530.653,7464.07C530.653,7462.71 530.946,7461.17 531.533,7459.46C530.68,7460.21 529.821,7460.95 528.955,7461.68C523.084,7466.6 516.717,7470.08 509.856,7472.13C507.875,7475.74 505.505,7479.54 502.747,7483.54C499.988,7487.53 496.628,7491.23 492.666,7494.63C488.705,7498.02 484.072,7500.83 478.766,7503.06C473.461,7505.29 467.271,7506.4 460.198,7506.4C457.793,7506.4 455.264,7506.16 452.611,7505.66C449.958,7505.17 447.536,7504.32 445.343,7503.11C443.15,7501.91 441.328,7500.32 439.878,7498.34C438.428,7496.36 437.703,7493.88 437.703,7490.91C437.703,7488.58 438.304,7486.54 439.507,7484.81C440.709,7483.08 442.248,7481.65 444.122,7480.51C445.997,7479.38 448.031,7478.53 450.224,7477.97C452.416,7477.4 454.503,7477.12 456.484,7477.12C458.111,7477.12 459.649,7477.24 461.1,7477.49C462.55,7477.74 463.558,7477.97 464.124,7478.18L464.124,7479.03C463.77,7478.96 463.328,7478.9 462.797,7478.87C462.267,7478.83 461.754,7478.82 461.259,7478.82C457.934,7478.82 455.299,7479.93 453.354,7482.16C451.408,7484.39 450.436,7487.09 450.436,7490.28C450.436,7492.26 450.719,7494.11 451.285,7495.85C451.851,7497.58 452.664,7499.1 453.725,7500.41C454.786,7501.72 456.113,7502.76 457.704,7503.54C459.296,7504.32 461.117,7504.71 463.169,7504.71C466.635,7504.71 470.101,7503.43 473.567,7500.89C477.033,7498.34 480.429,7495.02 483.753,7490.91C487.078,7486.81 490.332,7482.18 493.515,7477.01C496.699,7471.85 499.74,7466.67 502.641,7461.47L502.666,7461.42C502.136,7461.99 501.597,7462.55 501.049,7463.11C497.795,7466.44 494.789,7468.97 492.03,7470.7C489.271,7472.43 486.194,7473.3 482.798,7473.3C479.898,7473.3 477.705,7472.47 476.22,7470.81C474.734,7469.14 473.992,7466.83 473.992,7463.86C473.992,7462.6 474.205,7461.21 474.632,7459.7C474.403,7459.95 474.172,7460.21 473.939,7460.46C471.852,7462.72 469.659,7464.81 467.36,7466.72C465.061,7468.63 462.691,7470.2 460.251,7471.44C457.81,7472.68 455.387,7473.3 452.982,7473.3C450.011,7473.3 447.783,7472.56 446.298,7471.07C444.812,7469.59 444.069,7467.71 444.069,7465.45C444.069,7463.89 444.317,7462.25 444.812,7460.51C444.994,7459.88 445.217,7459.2 445.48,7458.47C444.357,7459.73 443.198,7460.97 442,7462.21C439.984,7464.3 437.915,7466.15 435.793,7467.78C433.671,7469.41 431.531,7470.73 429.374,7471.76C427.216,7472.79 425.076,7473.3 422.954,7473.3C421.398,7473.3 420.054,7473.05 418.922,7472.56C417.79,7472.06 416.871,7471.39 416.163,7470.54C415.456,7469.69 414.925,7468.72 414.572,7467.62C414.218,7466.53 414.041,7465.41 414.041,7464.28C414.041,7463.43 414.147,7462.58 414.359,7461.73C414.572,7460.88 414.784,7460.18 414.996,7459.61L414.784,7459.4C413.228,7461.17 411.636,7462.88 410.009,7464.55C408.382,7466.21 406.684,7467.69 404.916,7469C403.147,7470.31 401.344,7471.35 399.504,7472.13C397.665,7472.91 395.791,7473.3 393.881,7473.3C390.91,7473.3 388.717,7472.43 387.302,7470.7C385.887,7468.97 385.18,7466.76 385.18,7464.07C385.18,7463.7 385.201,7463.33 385.243,7462.94ZM547.892,7483.98L547.892,7492.92C547.892,7493.3 547.872,7493.65 547.832,7493.97C547.792,7494.28 547.727,7494.56 547.636,7494.79C547.488,7495.15 547.285,7495.49 547.029,7495.79C546.772,7496.09 546.473,7496.35 546.131,7496.56C545.79,7496.77 545.411,7496.93 544.995,7497.05C544.579,7497.17 544.143,7497.23 543.687,7497.23C542.308,7497.23 541.185,7496.6 540.319,7495.33L542.507,7493.09C542.564,7493.48 542.69,7493.79 542.883,7494.02C543.077,7494.24 543.317,7494.36 543.601,7494.36C544.228,7494.36 544.542,7493.86 544.542,7492.87L544.542,7483.98L547.892,7483.98ZM525.157,7490.43C525.157,7489.47 525.333,7488.58 525.687,7487.75C526.04,7486.93 526.53,7486.2 527.157,7485.59C527.784,7484.97 528.533,7484.49 529.405,7484.15C530.276,7483.8 531.237,7483.62 532.285,7483.62C533.322,7483.62 534.279,7483.8 535.157,7484.15C536.034,7484.49 536.789,7484.97 537.422,7485.59C538.054,7486.2 538.547,7486.93 538.901,7487.75C539.254,7488.58 539.43,7489.47 539.43,7490.43C539.43,7491.39 539.254,7492.28 538.901,7493.1C538.547,7493.93 538.054,7494.65 537.422,7495.27C536.789,7495.88 536.034,7496.36 535.157,7496.71C534.279,7497.06 533.322,7497.23 532.285,7497.23C531.237,7497.23 530.276,7497.06 529.405,7496.71C528.533,7496.36 527.784,7495.88 527.157,7495.27C526.53,7494.65 526.04,7493.93 525.687,7493.1C525.333,7492.28 525.157,7491.39 525.157,7490.43ZM577.67,7489.66L584.32,7489.66C584.32,7490.34 584.292,7490.96 584.235,7491.52C584.178,7492.08 584.064,7492.6 583.893,7493.08C583.653,7493.75 583.329,7494.35 582.918,7494.86C582.508,7495.38 582.027,7495.82 581.474,7496.16C580.921,7496.51 580.314,7496.78 579.653,7496.96C578.992,7497.14 578.297,7497.23 577.568,7497.23C576.565,7497.23 575.65,7497.07 574.824,7496.74C573.998,7496.4 573.289,7495.94 572.696,7495.34C572.103,7494.74 571.642,7494.03 571.311,7493.19C570.981,7492.35 570.816,7491.43 570.816,7490.41C570.816,7489.41 570.978,7488.49 571.303,7487.65C571.628,7486.81 572.089,7486.1 572.687,7485.5C573.286,7484.91 574.007,7484.45 574.85,7484.12C575.693,7483.79 576.633,7483.62 577.67,7483.62C579.015,7483.62 580.195,7483.91 581.209,7484.5C582.223,7485.08 583.027,7485.98 583.619,7487.2L580.44,7488.51C580.143,7487.81 579.759,7487.3 579.286,7486.99C578.813,7486.68 578.274,7486.53 577.67,7486.53C577.169,7486.53 576.713,7486.62 576.303,7486.81C575.893,7487 575.542,7487.27 575.252,7487.62C574.961,7487.96 574.733,7488.38 574.568,7488.87C574.403,7489.36 574.32,7489.91 574.32,7490.51C574.32,7491.06 574.391,7491.57 574.534,7492.03C574.676,7492.5 574.89,7492.91 575.175,7493.25C575.46,7493.59 575.813,7493.86 576.234,7494.04C576.656,7494.23 577.146,7494.32 577.705,7494.32C578.035,7494.32 578.354,7494.29 578.662,7494.21C578.97,7494.14 579.246,7494.02 579.491,7493.86C579.736,7493.69 579.938,7493.48 580.098,7493.21C580.257,7492.95 580.366,7492.63 580.423,7492.26L577.67,7492.26L577.67,7489.66ZM567.431,7487.28C567.066,7486.99 566.702,7486.77 566.337,7486.62C565.972,7486.48 565.619,7486.41 565.277,7486.41C564.844,7486.41 564.491,7486.51 564.217,7486.72C563.944,7486.92 563.807,7487.19 563.807,7487.52C563.807,7487.75 563.875,7487.94 564.012,7488.09C564.149,7488.23 564.328,7488.36 564.551,7488.47C564.773,7488.58 565.023,7488.67 565.303,7488.75C565.582,7488.83 565.858,7488.92 566.132,7489.01C567.226,7489.37 568.026,7489.86 568.533,7490.47C569.041,7491.08 569.294,7491.88 569.294,7492.86C569.294,7493.52 569.183,7494.11 568.961,7494.65C568.739,7495.19 568.414,7495.64 567.986,7496.03C567.559,7496.41 567.035,7496.7 566.414,7496.91C565.793,7497.13 565.089,7497.23 564.303,7497.23C562.673,7497.23 561.163,7496.75 559.773,7495.78L561.209,7493.08C561.71,7493.52 562.206,7493.85 562.696,7494.07C563.186,7494.28 563.67,7494.39 564.149,7494.39C564.696,7494.39 565.103,7494.27 565.371,7494.02C565.639,7493.77 565.773,7493.48 565.773,7493.16C565.773,7492.97 565.739,7492.8 565.67,7492.66C565.602,7492.52 565.488,7492.39 565.328,7492.27C565.169,7492.15 564.961,7492.03 564.704,7491.93C564.448,7491.83 564.137,7491.72 563.773,7491.59C563.34,7491.45 562.915,7491.3 562.499,7491.14C562.083,7490.97 561.713,7490.75 561.388,7490.48C561.063,7490.2 560.801,7489.86 560.602,7489.44C560.402,7489.03 560.303,7488.5 560.303,7487.86C560.303,7487.23 560.408,7486.65 560.619,7486.13C560.83,7485.61 561.126,7485.16 561.508,7484.8C561.889,7484.43 562.357,7484.14 562.909,7483.93C563.462,7483.73 564.08,7483.62 564.764,7483.62C565.402,7483.62 566.069,7483.71 566.764,7483.89C567.459,7484.07 568.126,7484.32 568.764,7484.67L567.431,7487.28ZM631.911,7496.87L627.005,7483.98L623.346,7483.98L618.44,7496.87L622.013,7496.87L622.782,7494.63L627.569,7494.63L628.338,7496.87L631.911,7496.87ZM604.406,7496.87L604.406,7490.68L609.124,7483.98L605.124,7483.98L602.748,7487.5L600.355,7483.98L596.354,7483.98L601.055,7490.68L601.055,7496.87L604.406,7496.87ZM646.253,7496.87L646.253,7483.98L642.919,7483.98L642.919,7491.86L636.731,7483.98L633.381,7483.98L633.381,7496.87L636.731,7496.87L636.731,7488.99C638.794,7491.62 640.857,7494.24 642.919,7496.87L646.253,7496.87ZM597.158,7496.87L593.107,7491.59C594.03,7491.37 594.728,7490.96 595.201,7490.35C595.674,7489.74 595.91,7488.95 595.91,7487.97C595.91,7487.42 595.822,7486.91 595.645,7486.43C595.468,7485.95 595.206,7485.53 594.859,7485.16C594.511,7484.8 594.07,7484.51 593.534,7484.3C592.998,7484.09 592.371,7483.98 591.654,7483.98L586.44,7483.98L586.44,7496.87L589.79,7496.87L589.79,7491.91C590.856,7493.57 591.921,7495.22 592.987,7496.87L597.158,7496.87ZM618.782,7486.82L618.782,7483.98L609.927,7483.98L609.927,7486.82L612.68,7486.82L612.68,7496.87L616.03,7496.87L616.03,7486.82L618.782,7486.82ZM557.944,7486.82L557.944,7483.98L550.61,7483.98L550.61,7496.87L557.944,7496.87L557.944,7494.03L553.961,7494.03L553.961,7491.81L557.721,7491.81L557.721,7488.98L553.961,7488.98L553.961,7486.82L557.944,7486.82ZM522.883,7496.87L522.883,7483.98L519.55,7483.98L519.55,7491.86L513.362,7483.98L510.011,7483.98L510.011,7496.87L513.362,7496.87L513.362,7488.99C515.424,7491.62 517.487,7494.24 519.55,7496.87L522.883,7496.87ZM528.661,7490.43C528.661,7490.94 528.758,7491.41 528.952,7491.85C529.145,7492.28 529.407,7492.65 529.738,7492.98C530.068,7493.29 530.453,7493.54 530.892,7493.72C531.331,7493.9 531.795,7493.98 532.285,7493.98C532.775,7493.98 533.239,7493.9 533.678,7493.72C534.117,7493.54 534.504,7493.29 534.841,7492.98C535.177,7492.65 535.442,7492.28 535.635,7491.85C535.829,7491.41 535.926,7490.94 535.926,7490.43C535.926,7489.91 535.829,7489.44 535.635,7489.01C535.442,7488.58 535.177,7488.2 534.841,7487.88C534.504,7487.56 534.117,7487.31 533.678,7487.14C533.239,7486.96 532.775,7486.87 532.285,7486.87C531.795,7486.87 531.331,7486.96 530.892,7487.14C530.453,7487.31 530.068,7487.56 529.738,7487.88C529.407,7488.2 529.145,7488.58 528.952,7489.01C528.758,7489.44 528.661,7489.91 528.661,7490.43ZM626.68,7492.09L625.175,7487.8L623.671,7492.09L626.68,7492.09ZM590.423,7486.56C591.084,7486.56 591.591,7486.7 591.944,7486.97C592.297,7487.25 592.474,7487.64 592.474,7488.15C592.474,7488.67 592.297,7489.06 591.944,7489.33C591.591,7489.61 591.084,7489.74 590.423,7489.74L589.79,7489.74L589.79,7486.56L590.423,7486.56ZM528.302,7481.06C528.302,7480.84 528.345,7480.64 528.43,7480.44C528.516,7480.24 528.635,7480.06 528.789,7479.91C528.943,7479.75 529.123,7479.63 529.328,7479.55C529.533,7479.46 529.749,7479.42 529.977,7479.42C530.205,7479.42 530.419,7479.46 530.618,7479.55C530.818,7479.63 530.994,7479.75 531.148,7479.9C531.302,7480.05 531.425,7480.22 531.516,7480.43C531.607,7480.63 531.653,7480.85 531.653,7481.08C531.653,7481.32 531.607,7481.54 531.516,7481.74C531.425,7481.93 531.305,7482.11 531.157,7482.27C531.009,7482.42 530.832,7482.54 530.627,7482.62C530.422,7482.71 530.211,7482.75 529.994,7482.75C529.504,7482.75 529.1,7482.59 528.781,7482.26C528.462,7481.93 528.302,7481.53 528.302,7481.06ZM532.952,7481.06C532.952,7480.84 532.994,7480.64 533.08,7480.44C533.165,7480.24 533.285,7480.06 533.439,7479.91C533.593,7479.75 533.772,7479.63 533.977,7479.55C534.182,7479.46 534.399,7479.42 534.627,7479.42C534.855,7479.42 535.069,7479.46 535.268,7479.55C535.467,7479.63 535.644,7479.75 535.798,7479.9C535.952,7480.05 536.074,7480.22 536.165,7480.43C536.257,7480.63 536.302,7480.85 536.302,7481.08C536.302,7481.56 536.14,7481.95 535.815,7482.27C535.49,7482.59 535.094,7482.75 534.627,7482.75C534.148,7482.75 533.749,7482.59 533.43,7482.27C533.111,7481.94 532.952,7481.54 532.952,7481.06ZM386.029,7397.54C387.302,7397.54 388.505,7397.57 389.636,7397.64C390.768,7397.72 391.759,7397.75 392.607,7397.75C393.668,7397.75 394.712,7397.63 395.738,7397.38C396.763,7397.13 397.276,7396.69 397.276,7396.05C397.276,7394.78 396.215,7394.14 394.093,7394.14C393.386,7394.14 392.501,7394.25 391.44,7394.46C390.379,7394.67 389.265,7394.92 388.098,7395.2C386.931,7395.49 385.763,7395.73 384.596,7395.95C383.429,7396.16 382.386,7396.27 381.466,7396.27C379.344,7396.27 376.532,7396.3 373.031,7396.37C369.529,7396.44 365.656,7396.62 361.412,7396.9C357.168,7397.19 352.676,7397.61 347.936,7398.18C343.197,7398.74 338.528,7399.5 333.93,7400.46C329.332,7401.41 324.946,7402.61 320.773,7404.06C316.599,7405.51 312.903,7407.28 309.685,7409.37C306.466,7411.46 303.919,7413.88 302.045,7416.64C300.17,7419.4 299.233,7422.54 299.233,7426.08C299.233,7430.32 300.542,7433.67 303.159,7436.11C305.776,7438.55 309.172,7439.77 313.345,7439.77C316.599,7439.77 319.57,7439.24 322.258,7438.18C324.946,7437.12 327.245,7435.75 329.155,7434.09C331.065,7432.43 332.533,7430.56 333.559,7428.47C334.584,7426.38 335.097,7424.35 335.097,7422.37C335.097,7420.46 334.814,7418.87 334.248,7417.59C333.683,7416.32 333.046,7415.26 332.339,7414.41L331.384,7414.83C333.011,7417.03 333.824,7419.47 333.824,7422.15C333.824,7423.71 333.453,7425.32 332.71,7426.98C331.967,7428.65 330.941,7430.13 329.633,7431.44C328.324,7432.75 326.786,7433.83 325.017,7434.68C323.249,7435.53 321.374,7435.95 319.393,7435.95C316.705,7435.95 314.477,7435.1 312.709,7433.4C310.94,7431.7 310.056,7429.48 310.056,7426.72C310.056,7423.32 311.259,7419.89 313.664,7416.43C316.069,7412.96 320.048,7409.85 325.601,7407.09C331.154,7404.33 338.457,7402.07 347.512,7400.3C356.566,7398.53 367.778,7397.61 381.148,7397.54L381.148,7397.75C378.035,7398.32 374.693,7399.25 371.121,7400.56C367.548,7401.87 363.941,7403.68 360.298,7405.97C356.655,7408.27 353.118,7411.15 349.687,7414.62C346.256,7418.09 343.126,7422.26 340.297,7427.14C336.618,7433.51 333.276,7439.4 330.269,7444.81C327.263,7450.22 324.292,7454.89 321.356,7458.82C318.421,7462.74 315.361,7465.84 312.178,7468.1C308.995,7470.36 305.317,7471.53 301.143,7471.6C298.809,7471.67 296.916,7471.07 295.466,7469.8C294.016,7468.52 293.291,7466.79 293.291,7464.6C293.291,7464.32 293.309,7464.1 293.344,7463.96C293.38,7463.82 293.397,7463.68 293.397,7463.54C294.741,7463.18 295.696,7462.49 296.262,7461.47C296.828,7460.44 297.111,7459.26 297.111,7457.91C297.111,7456.15 296.439,7454.78 295.095,7453.83C293.751,7452.87 292.265,7452.4 290.638,7452.4C288.163,7452.4 286.288,7453.19 285.015,7454.78C283.741,7456.38 283.105,7458.3 283.105,7460.57C283.105,7462.4 283.529,7464.09 284.378,7465.61C285.227,7467.13 286.412,7468.42 287.933,7469.48C289.454,7470.54 291.257,7471.37 293.344,7471.97C295.431,7472.57 297.712,7472.87 300.188,7472.87C306.554,7472.87 312.16,7471.97 317.006,7470.17C321.852,7468.36 326.184,7465.94 330.004,7462.9C333.824,7459.86 337.202,7456.36 340.137,7452.4C343.073,7448.43 345.796,7444.31 348.308,7440.03C350.819,7435.75 353.206,7431.48 355.47,7427.19C357.734,7422.92 360.103,7418.94 362.579,7415.26C364.913,7411.72 367.301,7408.8 369.741,7406.5C372.182,7404.2 374.463,7402.38 376.585,7401.04C378.707,7399.7 380.6,7398.78 382.262,7398.28C383.924,7397.79 385.145,7397.54 385.923,7397.54L386.029,7397.54ZM498.184,7417.27C498.184,7415.22 498.909,7413.47 500.359,7412.02C501.809,7410.57 503.56,7409.85 505.612,7409.85C507.663,7409.85 509.414,7410.57 510.864,7412.02C512.314,7413.47 513.039,7415.22 513.039,7417.27C513.039,7419.33 512.314,7421.08 510.864,7422.53C509.414,7423.98 507.663,7424.7 505.612,7424.7C503.56,7424.7 501.809,7423.98 500.359,7422.53C498.909,7421.08 498.184,7419.33 498.184,7417.27ZM643.657,7417.27C643.657,7415.22 644.382,7413.47 645.832,7412.02C647.282,7410.57 649.033,7409.85 651.084,7409.85C653.136,7409.85 654.887,7410.57 656.337,7412.02C657.787,7413.47 658.512,7415.22 658.512,7417.27C658.512,7419.33 657.787,7421.08 656.337,7422.53C654.887,7423.98 653.136,7424.7 651.084,7424.7C649.033,7424.7 647.282,7423.98 645.832,7422.53C644.382,7421.08 643.657,7419.33 643.657,7417.27ZM535.109,7409.85C537.161,7409.85 538.911,7410.57 540.362,7412.02C541.812,7413.47 542.537,7415.22 542.537,7417.27C542.537,7419.33 541.812,7421.08 540.362,7422.53C538.911,7423.98 537.161,7424.7 535.109,7424.7C533.058,7424.7 531.307,7423.98 529.857,7422.53C528.407,7421.08 527.682,7419.33 527.682,7417.27C527.682,7415.22 528.407,7413.47 529.857,7412.02C531.307,7410.57 533.058,7409.85 535.109,7409.85Z" style="fill:rgb(6,150,119);"/>
            </g>
        </g>
    </g>
</svg>
